<?xml version="1.0" standalone="no"?>
<!DOCTYPE svg PUBLIC "-//W3C//DTD SVG 20010904//EN"
 "http://www.w3.org/TR/2001/REC-SVG-20010904/DTD/svg10.dtd">
<svg version="1.0" xmlns="http://www.w3.org/2000/svg"
 width="16.000000pt" height="16.000000pt" viewBox="0 0 16.000000 16.000000"
 preserveAspectRatio="xMidYMid meet">
<metadata>
Created by potrace 1.11, written by Peter Selinger 2001-2013
</metadata>
<g transform="translate(0.000000,16.000000) scale(0.001250,-0.001250)"
fill="#000000" stroke="none">
<path d="M6138 10195 c-98 -40 -178 -71 -178 -68 0 3 -6 1 -12 -5 -7 -5 -87
-40 -178 -76 -91 -37 -174 -71 -185 -76 -32 -15 -446 -181 -490 -197 -22 -8
-53 -21 -70 -29 -35 -16 -425 -174 -440 -178 -5 -2 -23 -9 -40 -16 -52 -22
-87 -37 -220 -89 -117 -47 -152 -61 -220 -91 -11 -5 -67 -27 -125 -50 -58 -22
-114 -45 -125 -50 -11 -5 -72 -30 -135 -56 -63 -25 -221 -89 -350 -141 -129
-52 -318 -128 -420 -169 -102 -41 -194 -79 -205 -84 -11 -5 -60 -25 -110 -45
-49 -20 -99 -40 -110 -45 -11 -5 -128 -52 -260 -106 -268 -107 -351 -141 -380
-154 -11 -4 -90 -36 -175 -70 -85 -34 -168 -68 -185 -75 -16 -7 -77 -31 -135
-54 -58 -23 -114 -46 -125 -51 -11 -5 -81 -34 -155 -64 -186 -75 -510 -206
-540 -219 -14 -6 -27 -11 -30 -11 -7 -2 -69 -27 -115 -47 -22 -9 -87 -36 -145
-59 -57 -23 -109 -45 -115 -48 -5 -4 -16 -7 -23 -8 -7 -2 -42 -15 -77 -30
l-64 -28 1047 -523 c576 -287 1050 -524 1054 -525 8 -3 14 -80 23 -273 3 -72
8 -152 10 -180 3 -27 7 -117 11 -200 3 -82 8 -154 11 -158 3 -5 -9 -27 -27
-49 -32 -40 -57 -105 -55 -143 1 -32 26 -98 47 -124 10 -13 16 -31 14 -40 -3
-9 -7 -41 -11 -71 -3 -30 -7 -66 -9 -80 -3 -14 -10 -68 -16 -120 -6 -52 -13
-111 -16 -131 -5 -40 -10 -77 -19 -159 -3 -30 -8 -66 -10 -80 -2 -14 -7 -52
-10 -85 -3 -33 -8 -71 -10 -85 -5 -30 -17 -134 -20 -175 -4 -53 -16 -159 -20
-190 -2 -16 -7 -55 -9 -85 -3 -30 -8 -80 -11 -110 -16 -168 -16 -167 10 -198
13 -16 48 -47 77 -69 120 -92 198 -118 358 -118 119 0 172 6 228 26 56 19 57
28 26 244 -8 57 -14 110 -19 175 -3 36 -8 81 -11 100 -2 19 -7 67 -9 105 -3
39 -7 104 -10 145 -4 41 -8 100 -11 130 -2 30 -6 224 -8 431 -5 371 -5 377 15
395 75 68 83 199 19 286 -11 16 -19 32 -17 36 3 4 8 50 11 102 4 52 9 113 11
135 2 22 6 69 9 105 8 109 18 215 20 217 2 2 830 -410 1842 -916 l1839 -918
375 188 c206 104 380 189 386 189 7 0 14 4 16 8 4 10 126 72 143 72 7 0 15 4
17 8 3 7 660 338 2373 1196 209 104 382 194 383 198 2 4 9 8 16 8 6 0 178 84
381 186 204 102 618 309 920 460 303 151 557 279 565 283 8 5 205 104 437 221
233 117 421 216 418 220 -2 4 -33 17 -67 30 -35 12 -76 28 -93 35 -16 7 -61
25 -100 40 -38 14 -86 32 -105 40 -150 59 -286 111 -350 135 -77 29 -300 115
-335 130 -11 4 -78 31 -150 58 -71 28 -173 67 -225 87 -52 20 -158 61 -235 90
-77 30 -169 66 -205 80 -36 15 -69 28 -75 29 -11 2 -269 102 -300 116 -11 4
-81 32 -155 60 -224 85 -344 131 -365 141 -11 4 -150 58 -310 119 -159 61
-328 127 -375 146 -47 19 -88 34 -92 34 -3 0 -23 8 -44 17 -22 9 -41 17 -44
18 -3 1 -13 5 -22 8 -10 4 -26 10 -35 14 -10 3 -20 7 -23 7 -3 1 -24 9 -45 18
-22 10 -83 33 -135 53 -52 20 -104 40 -115 44 -11 5 -69 28 -130 51 -198 75
-220 84 -229 92 -6 4 -19 8 -31 8 -12 0 -25 4 -31 8 -5 4 -45 22 -89 39 -44
17 -111 43 -150 58 -38 15 -105 40 -147 55 -42 16 -91 35 -110 43 -18 8 -229
90 -468 182 -239 92 -484 186 -545 210 -60 23 -168 65 -240 92 -71 28 -139 54
-150 58 -11 5 -22 9 -25 10 -3 1 -18 7 -35 14 -16 7 -35 14 -42 15 -7 1 -16 5
-19 9 -12 12 -23 8 -206 -68z"/>
<path d="M3263 5898 c-1 -23 -15 -173 -18 -190 -2 -9 -7 -48 -10 -85 -4 -37
-8 -79 -10 -93 -2 -14 -6 -54 -10 -90 -3 -36 -8 -81 -10 -100 -5 -34 -12 -99
-20 -191 -2 -25 -6 -66 -9 -90 -3 -24 -10 -89 -16 -144 -6 -55 -13 -116 -15
-135 -13 -109 -17 -139 -20 -180 -1 -25 -6 -75 -10 -110 -4 -36 -9 -76 -10
-90 -2 -14 -6 -52 -9 -85 -4 -33 -9 -78 -11 -100 -2 -22 -7 -60 -9 -85 -3 -25
-8 -72 -11 -105 -3 -33 -8 -78 -11 -100 -3 -22 -6 -58 -8 -80 -2 -22 -7 -63
-11 -91 l-7 -51 46 -29 c25 -16 46 -32 46 -36 0 -5 4 -8 9 -8 5 0 65 -37 133
-83 234 -158 483 -304 723 -425 141 -71 333 -162 342 -162 2 0 30 -12 61 -26
31 -14 93 -39 137 -55 44 -16 89 -34 100 -39 19 -9 237 -81 343 -114 90 -28
281 -75 392 -97 58 -12 114 -23 125 -25 10 -2 35 -6 55 -9 20 -3 47 -8 60 -11
14 -2 43 -7 65 -9 22 -3 63 -7 90 -11 28 -4 61 -8 75 -10 203 -25 805 -25 941
1 11 2 48 7 82 10 35 3 71 7 82 9 11 2 42 7 68 10 27 4 57 9 67 11 9 2 34 6
55 9 172 28 600 137 715 183 8 3 20 7 26 8 19 5 238 86 271 101 17 7 34 14 37
14 3 0 30 11 60 25 30 14 57 25 61 25 9 0 146 64 310 145 230 113 440 229 645
358 122 76 295 190 332 219 40 31 38 19 23 153 -3 28 -8 77 -10 110 -3 33 -7
74 -10 90 -2 17 -7 66 -10 110 -4 44 -8 90 -10 101 -2 12 -6 61 -10 110 -4 49
-9 97 -10 106 -2 9 -7 48 -10 85 -4 37 -8 88 -11 113 -2 25 -6 70 -9 100 -3
30 -7 75 -10 100 -3 25 -7 70 -10 100 -3 30 -7 77 -10 103 -2 26 -7 73 -10
105 -3 31 -7 75 -10 97 -3 22 -7 72 -10 110 -3 39 -8 88 -11 110 -2 22 -7 67
-10 100 -2 33 -6 74 -9 90 -6 50 -18 169 -19 195 -1 14 -3 27 -6 29 -5 5 -235
-110 -2015 -1004 l-1030 -517 -220 108 c-121 60 -227 114 -235 121 -8 6 -18
12 -23 12 -4 1 -588 291 -1298 646 -710 355 -1297 645 -1303 645 -7 0 -13 -6
-13 -12z"/>
</g>
</svg>
